<svg width="24" height="24" xmlns="http://www.w3.org/2000/svg" fill-rule="evenodd" clip-rule="evenodd"><path d="M15.551 14.703c.474 1.372 2.049 2.459 3.801 1.868l.021-.007a2.996 2.996 0 001.854-3.807A23.791 23.791 0 0020.532 11h-5.967c.299 1.366.625 2.647.986 3.703m2.264-9.232l-4.051 1.388c.183 1.037.379 2.103.59 3.141h5.726c-.655-1.404-1.445-2.94-2.265-4.529m.492-1.226c1.524 2.958 3.086 5.915 3.866 8.187.598 1.744-.045 3.895-2.028 4.874l1.211 3.529c.291.812 1.322.926 2.392.808l.252.735L19.272 24 19 23.212c.903-.479 1.688-1.215 1.41-2.054l-1.208-3.52c-2.162.439-3.994-.861-4.596-2.61-.791-2.304-1.405-5.566-1.976-8.837l5.677-1.946zM9.435 11H3.468c-.27.62-.508 1.211-.695 1.757a2.997 2.997 0 001.854 3.807l.021.007c1.753.591 3.328-.496 3.801-1.868.362-1.056.688-2.337.986-3.703M3.92 10h5.726c.211-1.038.407-2.104.591-3.141L6.186 5.471C5.365 7.06 4.575 8.596 3.92 10m7.45-3.809c-.571 3.271-1.185 6.533-1.976 8.837-.602 1.749-2.434 3.049-4.596 2.61l-1.208 3.52c-.278.839.507 1.575 1.41 2.054L4.729 24 0 22.378l.252-.735c1.07.118 2.102.004 2.392-.808l1.211-3.529c-1.983-.979-2.625-3.13-2.028-4.874.78-2.272 2.342-5.229 3.867-8.187l5.676 1.946zm7.13 7.811a.75.75 0 110 1.5.75.75 0 010-1.5M4 14.25a.75.75 0 101.5 0 .75.75 0 00-1.5 0M7.25 12a.75.75 0 11-.002 1.502A.75.75 0 017.25 12m10.5-.499a.75.75 0 11-.001 1.501.75.75 0 01.001-1.501m-5.249-7.977V.501a.499.499 0 10-.999 0v3.023a.5.5 0 10.999 0m1.932.462l1.641-2.79a.498.498 0 10-.86-.508l-1.643 2.79a.502.502 0 00.43.754.5.5 0 00.432-.246m-4.552.246a.504.504 0 01-.432-.246l-1.642-2.79a.5.5 0 01.862-.508l1.643 2.79a.5.5 0 01-.431.754"/></svg>
