<svg width="24" height="24" xmlns="http://www.w3.org/2000/svg" fill-rule="evenodd" clip-rule="evenodd"><path d="M15.551 14.703c.474 1.372 2.049 2.459 3.801 1.868l.021-.007c1.565-.544 2.391-2.242 1.854-3.807-.187-.546-.425-1.137-.695-1.757h-5.967c.299 1.366.625 2.647.986 3.703m2.264-9.232l-4.051 1.388c.183 1.037.379 2.103.59 3.141h5.726c-.655-1.404-1.445-2.94-2.265-4.529m.492-1.226c1.524 2.958 3.086 5.915 3.866 8.187.598 1.744-.045 3.895-2.028 4.874l1.211 3.529c.291.812 1.322.926 2.392.808l.252.735-4.728 1.622-.272-.788c.903-.479 1.688-1.215 1.41-2.054l-1.208-3.52c-2.162.439-3.994-.861-4.596-2.61-.791-2.304-1.405-5.566-1.976-8.837l5.677-1.946zm-8.872 6.755h-5.967c-.27.62-.508 1.211-.695 1.757-.536 1.565.289 3.263 1.854 3.807l.021.007c1.753.591 3.328-.496 3.801-1.868.362-1.056.688-2.337.986-3.703m-5.515-1h5.726c.211-1.038.407-2.104.591-3.141l-4.051-1.388c-.821 1.589-1.611 3.125-2.266 4.529m7.45-3.809c-.571 3.271-1.185 6.533-1.976 8.837-.602 1.749-2.434 3.049-4.596 2.61l-1.208 3.52c-.278.839.507 1.575 1.41 2.054l-.271.788-4.729-1.622.252-.735c1.07.118 2.102.004 2.392-.808l1.211-3.529c-1.983-.979-2.625-3.13-2.028-4.874.78-2.272 2.342-5.229 3.867-8.187l5.676 1.946zm7.13 7.811c.414 0 .75.336.75.75 0 .413-.336.75-.75.75s-.75-.337-.75-.75c0-.414.336-.75.75-.75m-14.5.248c0 .414.336.75.75.75s.75-.336.75-.75c0-.413-.336-.75-.75-.75s-.75.337-.75.75m3.25-2.25c.414 0 .75.337.75.75 0 .414-.336.75-.75.75s-.75-.336-.75-.75c0-.413.336-.75.75-.75m10.5-.499c.414 0 .75.336.75.751 0 .413-.336.75-.75.75s-.75-.337-.75-.75c0-.415.336-.751.75-.751m-5.249-7.977v-3.023c0-.277-.223-.5-.5-.5-.275 0-.499.223-.499.5v3.023c0 .276.224.5.499.5.277 0 .5-.224.5-.5m1.932.462l1.641-2.79c.142-.238.062-.545-.176-.685-.239-.139-.544-.062-.684.177l-1.643 2.79c-.14.238-.06.545.176.685.08.047.167.069.254.069.172 0 .339-.088.432-.246m-4.552.246c-.171 0-.337-.088-.432-.246l-1.642-2.79c-.14-.238-.061-.545.177-.685.237-.14.544-.061.685.177l1.643 2.79c.139.238.061.545-.178.685-.08.047-.166.069-.253.069"/></svg>