<svg width="24" height="24" xmlns="http://www.w3.org/2000/svg" fill-rule="evenodd" clip-rule="evenodd"><path d="M9 23h-.984v-7.881c0-1.035-.479-2.003-1.455-1.636l-1.629.672-1.274-2.378 8.239-5.562 2.222 4.148-3.438 1.419c-1.185.595-1.681 1.756-1.681 3.209v8.009zm15.008-10.713l-6.531 1.403-.047 5.314c-1.212-.251-2.453.659-2.462 1.671-.007.871.67 1.318 1.409 1.325.878.008 2.028-.606 2.04-1.874l.039-4.441 4.575-.959-.031 3.514c-1.21-.25-2.311.657-2.319 1.666-.008.873.687 1.323 1.423 1.33.871.007 1.829-.606 1.842-1.873l.062-7.076zm-23.008 6.204l-1-.02c.051-2.611 1.093-4.403 3.185-5.479l.457.89c-1.759.904-2.599 2.369-2.642 4.609zm14.823-15.491c-1.515 0-2.618.79-3.386 2.143l2.901 5.415c2.781.181 4.298-1.76 4.298-3.744 0-2.125-1.716-3.814-3.813-3.814zm-10.933-1.984l-.877-.003-.013 4.939c-1.238-.248-2.423.695-2.426 1.727-.003.867.685 1.319 1.432 1.321.888.003 1.989-.628 1.994-1.915l.01-3.87c1.451.899 1.706.935 1.85 1.943.331-.613.438-1.031.439-1.483.004-1.383-2.412-1.547-2.409-2.659z"/></svg>