<svg width="24" height="24" viewBox="0 0 24 24" fill="none" xmlns="http://www.w3.org/2000/svg">
<path fill-rule="evenodd" clip-rule="evenodd" d="M18.9413 12C18.9413 12.306 18.9135 12.594 18.8765 12.882L20.8288 14.367C21.0046 14.502 21.0508 14.745 20.9398 14.943L19.0893 18.057C18.9783 18.255 18.7377 18.336 18.5249 18.255L16.2211 17.355C15.7399 17.706 15.2218 18.012 14.6574 18.237L14.3058 20.622C14.278 20.838 14.0837 21 13.8524 21H10.1514C9.92011 21 9.72581 20.838 9.69805 20.622L9.34646 18.237C8.78206 18.012 8.26392 17.715 7.78279 17.355L5.47892 18.255C5.27537 18.327 5.02555 18.255 4.91452 18.057L3.06403 14.943C2.953 14.745 2.99926 14.502 3.17506 14.367L5.12733 12.882C5.09032 12.594 5.06256 12.297 5.06256 12C5.06256 11.703 5.09032 11.406 5.12733 11.118L3.17506 9.63303C2.99926 9.49802 2.94374 9.25503 3.06403 9.05703L4.91452 5.94302C5.02555 5.74502 5.26612 5.66402 5.47892 5.74502L7.78279 6.64503C8.26392 6.29403 8.78206 5.98802 9.34646 5.76302L9.69805 3.37802C9.72581 3.16202 9.92011 3.00002 10.1514 3.00002H13.8524C14.0837 3.00002 14.278 3.16202 14.3058 3.37802L14.6574 5.76302C15.2218 5.98802 15.7399 6.28503 16.2211 6.64503L18.5249 5.74502C18.7285 5.67302 18.9783 5.74502 19.0893 5.94302L20.9398 9.05703C21.0508 9.25503 21.0046 9.49802 20.8288 9.63303L18.8765 11.118C18.9135 11.406 18.9413 11.694 18.9413 12ZM8.7634 12C8.7634 13.737 10.216 15.15 12.0018 15.15C13.7875 15.15 15.2401 13.737 15.2401 12C15.2401 10.263 13.7875 8.85003 12.0018 8.85003C10.216 8.85003 8.7634 10.263 8.7634 12Z" fill="#131C21"/>
</svg>
