<svg width="24" height="24" viewBox="0 0 24 24" fill="none" xmlns="http://www.w3.org/2000/svg">
<path d="M17.1333 6.69984C18.1643 6.69984 19 5.8716 19 4.84992C19 3.82824 18.1643 3 17.1333 3C16.1024 3 15.2667 3.82824 15.2667 4.84992C15.2667 5.8716 16.1024 6.69984 17.1333 6.69984Z" fill="black"/>
<path d="M14.3333 16.3752H12.4667C12.4667 17.9014 11.2067 19.1501 9.66667 19.1501C8.12667 19.1501 6.86667 17.9014 6.86667 16.3752C6.86667 14.849 8.12667 13.6003 9.66667 13.6003V11.7504C7.09067 11.7504 5 13.8223 5 16.3752C5 18.9281 7.09067 21 9.66667 21C12.2427 21 14.3333 18.9281 14.3333 16.3752ZM17.1333 13.1378H15.3973L16.956 9.74323C17.5253 8.51303 16.6107 7.12559 15.2293 7.12559H10.376C9.62 7.12559 8.93867 7.56032 8.63067 8.23554L8.36933 8.93851C8.17333 9.45649 8.472 10.0207 9.004 10.1687C9.46133 10.2982 9.93733 10.067 10.124 9.63223L10.404 8.97551H12.4667L10.7587 12.7678C10.1987 13.998 11.1227 15.4502 12.4853 15.4502H17.1333V19.1501C17.1333 19.6588 17.5533 20.075 18.0667 20.075C18.58 20.075 19 19.6588 19 19.1501V14.9878C19 13.9703 18.16 13.1378 17.1333 13.1378Z" fill="black"/>
</svg>
