<svg width="24" height="24" viewBox="0 0 24 24" fill="none" xmlns="http://www.w3.org/2000/svg">
<path d="M11.3334 16C11.3334 16.7333 10.7334 17.3333 10 17.3333C9.26669 17.3333 8.66669 16.7333 8.66669 16C8.66669 15.2667 9.26669 14.6667 10 14.6667C10.7334 14.6667 11.3334 15.2667 11.3334 16ZM10 10.6667C9.26669 10.6667 8.66669 11.2667 8.66669 12C8.66669 12.7333 9.26669 13.3333 10 13.3333C10.7334 13.3333 11.3334 12.7333 11.3334 12C11.3334 11.2667 10.7334 10.6667 10 10.6667ZM10 6.66666C9.26669 6.66666 8.66669 7.26666 8.66669 8C8.66669 8.73333 9.26669 9.33333 10 9.33333C10.7334 9.33333 11.3334 8.73333 11.3334 8C11.3334 7.26666 10.7334 6.66666 10 6.66666ZM14 9.33333C14.7334 9.33333 15.3334 8.73333 15.3334 8C15.3334 7.26666 14.7334 6.66666 14 6.66666C13.2667 6.66666 12.6667 7.26666 12.6667 8C12.6667 8.73333 13.2667 9.33333 14 9.33333ZM14 10.6667C13.2667 10.6667 12.6667 11.2667 12.6667 12C12.6667 12.7333 13.2667 13.3333 14 13.3333C14.7334 13.3333 15.3334 12.7333 15.3334 12C15.3334 11.2667 14.7334 10.6667 14 10.6667ZM14 14.6667C13.2667 14.6667 12.6667 15.2667 12.6667 16C12.6667 16.7333 13.2667 17.3333 14 17.3333C14.7334 17.3333 15.3334 16.7333 15.3334 16C15.3334 15.2667 14.7334 14.6667 14 14.6667Z" fill="black"/>
</svg>
