<svg width="24" height="24" viewBox="0 0 24 24" fill="none" xmlns="http://www.w3.org/2000/svg">
<path fill-rule="evenodd" clip-rule="evenodd" d="M17.25 5.25H9.75C8.9175 5.25 8.25 5.925 8.25 6.75V14.25C8.25 15.075 8.9175 15.75 9.75 15.75H17.25C18.075 15.75 18.75 15.075 18.75 14.25V6.75C18.75 5.925 18.075 5.25 17.25 5.25ZM5.25 9.75H6.75V8.25H5.25V9.75ZM5.25 12.75H6.75V11.25H5.25V12.75ZM5.25 15.75H6.75V14.25H5.25V15.75ZM6.75 17.25V18.75C5.9175 18.75 5.25 18.075 5.25 17.25H6.75ZM15.75 18.75H14.25V17.25H15.75V18.75ZM11.25 18.75H12.75V17.25H11.25V18.75ZM9.75 18.75H8.25V17.25H9.75V18.75Z" fill="black"/>
</svg>
