<svg width="24" height="24" viewBox="0 0 24 24" fill="none" xmlns="http://www.w3.org/2000/svg">
<path fill-rule="evenodd" clip-rule="evenodd" d="M13.875 2H5.875C4.775 2 3.875 2.9 3.875 4V20C3.875 21.1 4.765 22 5.865 22H17.875C18.975 22 19.875 21.1 19.875 20V8L13.875 2ZM17.875 13.5H5.875V4H12.875V9H17.875V13.5ZM14.5024 7.32814V5.10474L16.6084 7.32814H14.5024ZM17.1221 19.4944C17.2568 19.2874 17.3242 19.0511 17.3242 18.7854C17.3242 18.4964 17.252 18.2571 17.1074 18.0677C16.9648 17.8763 16.709 17.6976 16.3398 17.5315C15.9551 17.3558 15.7188 17.2347 15.6309 17.1683C15.5449 17.1019 15.502 17.0267 15.502 16.9427C15.502 16.8646 15.5361 16.7991 15.6045 16.7464C15.6729 16.6937 15.7822 16.6673 15.9326 16.6673C16.2236 16.6673 16.5693 16.7591 16.9697 16.9427L17.3242 16.0491C16.8633 15.844 16.4111 15.7415 15.9678 15.7415C15.4658 15.7415 15.0713 15.8519 14.7842 16.0726C14.4971 16.2933 14.3535 16.6009 14.3535 16.9954C14.3535 17.2063 14.3867 17.389 14.4531 17.5433C14.5215 17.6976 14.625 17.8343 14.7637 17.9534C14.9043 18.0726 15.1143 18.1956 15.3936 18.3226C15.7021 18.4612 15.8916 18.553 15.9619 18.5979C16.0342 18.6429 16.0859 18.6878 16.1172 18.7327C16.1504 18.7757 16.167 18.8265 16.167 18.8851C16.167 18.9788 16.127 19.056 16.0469 19.1165C15.9668 19.1751 15.8408 19.2044 15.6689 19.2044C15.4697 19.2044 15.251 19.1731 15.0127 19.1106C14.7744 19.0462 14.5449 18.9573 14.3242 18.844V19.8753C14.5332 19.9749 14.7344 20.0452 14.9277 20.0862C15.1211 20.1253 15.3604 20.1448 15.6455 20.1448C15.9873 20.1448 16.2852 20.0882 16.5391 19.9749C16.793 19.8597 16.9873 19.6995 17.1221 19.4944ZM10.5479 20.0862H9.20898L8.37402 18.7474L7.54785 20.0862H6.23828L7.65918 17.8948L6.32324 15.803H7.60645L8.37988 17.1272L9.12402 15.803H10.4453L9.08887 17.9856L10.5479 20.0862ZM11.0312 20.0862V15.803H12.1885V19.1517H13.8379V20.0862H11.0312Z" fill="black"/>
</svg>
