<svg width="24" height="24" viewBox="0 0 24 24" fill="none" xmlns="http://www.w3.org/2000/svg">
<path d="M3.33056 7.89598C2.56885 7.89598 1.95117 7.27667 1.95117 6.51659C1.95117 5.75489 2.57048 5.13721 3.33056 5.13721C4.09226 5.13721 4.70994 5.75619 4.70994 6.51659C4.70994 7.2783 4.09064 7.89598 3.33056 7.89598Z" fill="#00A0E3"/>
<path d="M6.31889 6.51643C6.31889 6.00844 6.73067 5.59698 7.23867 5.59698H21.0317C21.5394 5.59698 21.9512 6.00843 21.9512 6.51643C21.9512 7.02409 21.5394 7.43588 21.0317 7.43588H7.23867C6.73068 7.43588 6.31889 7.02411 6.31889 6.51643Z" fill="#00A0E3"/>
<path d="M6.31889 12.0336C6.31889 11.5256 6.73067 11.1141 7.23867 11.1141H21.0317C21.5394 11.1141 21.9512 11.5256 21.9512 12.0336C21.9512 12.5416 21.5394 12.953 21.0317 12.953H7.23867C6.73068 12.953 6.31889 12.5416 6.31889 12.0336Z" fill="#00A0E3"/>
<path d="M7.23867 16.6314C6.73067 16.6314 6.31889 17.0432 6.31889 17.5509C6.31889 18.0589 6.73068 18.4703 7.23867 18.4703H21.0317C21.5394 18.4703 21.9512 18.0589 21.9512 17.5509C21.9512 17.0432 21.5394 16.6314 21.0317 16.6314H7.23867Z" fill="#00A0E3"/>
<path d="M1.95117 17.551C1.95117 18.3114 2.56885 18.9304 3.33056 18.9304C4.09064 18.9304 4.70994 18.3127 4.70994 17.551C4.70994 16.791 4.09226 16.1716 3.33056 16.1716C2.57048 16.1716 1.95117 16.7893 1.95117 17.551Z" fill="#00A0E3"/>
<path d="M4.78254 10.4778L2.75136 12.5089L2.05327 11.8108C1.95566 11.7132 1.7974 11.7132 1.69978 11.8108L1.40817 12.1024C1.3613 12.1493 1.33496 12.2129 1.33496 12.2792C1.33496 12.3455 1.3613 12.4091 1.40817 12.4559L2.57462 13.6224C2.67223 13.72 2.83049 13.72 2.9281 13.6224L5.42764 11.1228C5.52525 11.0252 5.52525 10.867 5.42764 10.7694L5.13602 10.4778C5.08915 10.4309 5.02557 10.4045 4.95928 10.4045C4.89299 10.4045 4.82941 10.4309 4.78254 10.4778Z" fill="#00A0E3"/>
</svg>
