<svg width="24" height="24" viewBox="0 0 24 24" fill="none" xmlns="http://www.w3.org/2000/svg">
<path d="M11.1422 11.3701L12.4095 10.1044C11.9525 9.86477 11.438 9.75639 10.923 9.79134C10.4081 9.82624 9.91296 10.0031 9.49261 10.3022C9.07231 10.6013 8.74323 11.011 8.54205 11.4857C8.34086 11.9603 8.2754 12.4814 8.35293 12.991C8.43051 13.5006 8.64804 13.9788 8.98136 14.3723C9.31468 14.7659 9.75073 15.0594 10.2411 15.2202C10.7314 15.3811 11.2568 15.4031 11.7589 15.2836C12.2609 15.1641 12.72 14.908 13.0851 14.5436C13.5635 14.0641 13.8459 13.4237 13.8771 12.7474L15.4659 11.1607C15.9691 12.7474 15.615 14.5436 14.3477 15.8046C12.5539 17.6007 9.64194 17.6007 7.87611 15.8046C6.11029 14.0085 6.08233 11.1048 7.87611 9.34128C9.46489 7.75453 11.9342 7.57771 13.7327 8.81081L14.9068 7.63355C12.4654 5.78622 8.96636 5.95839 6.72996 8.16401C4.31649 10.5744 4.31649 14.5436 6.72996 16.9539C9.14341 19.3643 13.113 19.3597 15.5265 16.9539C16.4348 16.0484 17.041 14.8847 17.262 13.622C17.483 12.3593 17.308 11.0593 16.7611 9.89966L18.0843 8.57815C19.8502 11.6307 19.4122 15.6278 16.7938 18.2429C13.6721 21.3605 8.57965 21.3605 5.43469 18.2429C2.28975 15.1252 2.31305 10.0439 5.43469 6.90299C8.37464 3.96216 13.0245 3.78534 16.1741 6.34461L17.2317 5.28367L17.0873 4.52055L19.6731 1.93336L19.9993 3.66901L21.7325 3.99473L19.1466 6.57727L18.3825 6.43302L17.3202 7.4893L16.025 8.78289L14.8509 9.9555L13.5556 11.2491L12.2883 12.5148C12.2906 12.6775 12.2604 12.839 12.1996 12.99C12.1388 13.141 12.0486 13.2784 11.9342 13.3942C11.824 13.5134 11.6907 13.609 11.5426 13.6755C11.3943 13.742 11.2343 13.7778 11.0718 13.7811C10.9094 13.7842 10.748 13.7546 10.5973 13.694C10.4466 13.6334 10.3097 13.543 10.1949 13.4283C10.08 13.3135 9.98951 13.1768 9.92885 13.0263C9.86814 12.8759 9.83851 12.7147 9.84167 12.5525C9.84484 12.3903 9.88081 12.2304 9.94734 12.0823C10.0139 11.9343 10.1097 11.8013 10.229 11.6912C10.4946 11.4585 10.816 11.3701 11.1422 11.3701Z" fill="black"/>
</svg>
