<svg width="24" height="24" viewBox="0 0 24 24" fill="none" xmlns="http://www.w3.org/2000/svg">
<path fill-rule="evenodd" clip-rule="evenodd" d="M14.25 18.75H15.75V17.25H14.25V18.75ZM17.25 9.75H18.75V8.25H17.25V9.75ZM5.25 6.75V17.25C5.25 18.075 5.925 18.75 6.75 18.75H9.75V17.25H6.75V6.75H9.75V5.25H6.75C5.925 5.25 5.25 5.925 5.25 6.75ZM17.25 5.25V6.75H18.75C18.75 5.925 18.075 5.25 17.25 5.25ZM11.25 20.25H12.75V3.75H11.25V20.25ZM17.25 15.75H18.75V14.25H17.25V15.75ZM14.25 6.75H15.75V5.25H14.25V6.75ZM17.25 12.75H18.75V11.25H17.25V12.75ZM17.25 18.75C18.075 18.75 18.75 18.075 18.75 17.25H17.25V18.75Z" fill="#131C21"/>
</svg>
